<svg xmlns="http://www.w3.org/2000/svg" xmlns:xlink="http://www.w3.org/1999/xlink" width="512" zoomAndPan="magnify" viewBox="0 0 384 383.999986" height="512" preserveAspectRatio="xMidYMid meet" version="1.0"><defs><g/></defs><g fill="#4b6845" fill-opacity="1"><g transform="translate(3.925427, 250.9614)"><g><path d="M 107.21875 -30.34375 L 109.0625 -30.15625 L 105.9375 7.359375 L 103 7.359375 C 101.28125 6.003906 98.210938 4.957031 93.796875 4.21875 C 89.378906 3.488281 84.195312 2.9375 78.25 2.5625 C 72.3125 2.195312 66.09375 2.015625 59.59375 2.015625 C 55.425781 2.015625 51.316406 2.078125 47.265625 2.203125 C 43.222656 2.328125 39.363281 2.515625 35.6875 2.765625 L 11.953125 4.421875 C 11.953125 4.046875 11.921875 3.703125 11.859375 3.390625 C 11.796875 3.085938 11.765625 2.816406 11.765625 2.578125 L 22.625 1.28125 L 22.8125 -69.703125 L 21.15625 -144.015625 L 17.46875 -145.296875 L 3.859375 -145.296875 C 3.617188 -145.421875 3.5 -145.664062 3.5 -146.03125 C 3.5 -146.28125 3.523438 -146.523438 3.578125 -146.765625 C 3.640625 -147.015625 3.671875 -147.203125 3.671875 -147.328125 L 20.421875 -148.234375 L 42.484375 -147.140625 C 42.847656 -147.140625 44.347656 -147.140625 46.984375 -147.140625 C 49.628906 -147.140625 52.910156 -147.171875 56.828125 -147.234375 C 60.753906 -147.296875 64.832031 -147.351562 69.0625 -147.40625 C 73.289062 -147.46875 77.210938 -147.5 80.828125 -147.5 C 84.453125 -147.5 87.242188 -147.5 89.203125 -147.5 L 92.140625 -153.203125 L 93.796875 -153.015625 L 93.796875 -144.9375 L 90.859375 -119 L 89.390625 -119 L 87.921875 -139.78125 L 86.4375 -141.0625 C 84.226562 -141.925781 80.976562 -142.570312 76.6875 -143 C 72.40625 -143.425781 67.898438 -143.726562 63.171875 -143.90625 C 58.453125 -144.09375 54.191406 -144.1875 50.390625 -144.1875 C 47.691406 -144.1875 45.515625 -144.15625 43.859375 -144.09375 C 42.203125 -144.039062 41.375 -144.015625 41.375 -144.015625 C 41.007812 -139.597656 40.828125 -133.34375 40.828125 -125.25 C 40.828125 -118.75 40.914062 -111.328125 41.09375 -102.984375 C 41.28125 -94.648438 41.5 -85.945312 41.75 -76.875 L 79.453125 -78.90625 L 81.484375 -92.140625 L 82.953125 -92.515625 L 83.6875 -77.25 L 83.6875 -60.140625 L 82.21875 -59.953125 L 80.921875 -70.8125 L 79.09375 -73.390625 L 41.9375 -73.390625 C 42.0625 -67.503906 42.148438 -61.523438 42.203125 -55.453125 C 42.265625 -49.378906 42.359375 -43.550781 42.484375 -37.96875 C 42.609375 -32.394531 42.703125 -27.492188 42.765625 -23.265625 C 42.828125 -19.035156 42.859375 -15.878906 42.859375 -13.796875 L 42.859375 -6.984375 C 42.859375 -6.003906 42.828125 -4.992188 42.765625 -3.953125 C 42.703125 -2.910156 42.609375 -1.773438 42.484375 -0.546875 C 42.484375 -0.546875 43.921875 -0.546875 46.796875 -0.546875 C 49.679688 -0.546875 53.421875 -0.609375 58.015625 -0.734375 C 62.617188 -0.859375 67.523438 -1.070312 72.734375 -1.375 C 77.953125 -1.6875 82.953125 -2.085938 87.734375 -2.578125 C 92.515625 -3.066406 96.5 -3.738281 99.6875 -4.59375 Z M 107.21875 -30.34375 "/></g></g></g><g fill="#9cb796" fill-opacity="1"><g transform="translate(117.602395, 250.9614)"><g><path d="M 122.484375 -2.765625 C 122.484375 -2.515625 122.484375 -2.203125 122.484375 -1.828125 C 122.484375 -1.460938 122.546875 -1.097656 122.671875 -0.734375 C 121.816406 -0.609375 120.925781 -0.546875 120 -0.546875 C 119.082031 -0.546875 118.132812 -0.546875 117.15625 -0.546875 C 112.988281 -0.546875 108.878906 -0.914062 104.828125 -1.65625 C 97.472656 -3.25 90.488281 -6.128906 83.875 -10.296875 C 78.59375 -5.878906 72.398438 -2.628906 65.296875 -0.546875 C 62.597656 0.179688 59.867188 0.757812 57.109375 1.1875 C 54.347656 1.625 51.554688 1.84375 48.734375 1.84375 C 46.285156 1.84375 43.773438 1.65625 41.203125 1.28125 C 34.453125 0.175781 28.503906 -2.519531 23.359375 -6.8125 C 18.578125 -10.726562 15.082031 -15.628906 12.875 -21.515625 C 12.019531 -23.597656 11.40625 -25.773438 11.03125 -28.046875 C 10.664062 -30.316406 10.484375 -32.554688 10.484375 -34.765625 C 10.484375 -42.972656 12.875 -50.390625 17.65625 -57.015625 C 21.582031 -62.410156 26.300781 -66.609375 31.8125 -69.609375 C 37.332031 -72.617188 43.035156 -75.347656 48.921875 -77.796875 C 48.796875 -78.660156 48.734375 -79.457031 48.734375 -80.1875 C 48.734375 -80.925781 48.734375 -81.722656 48.734375 -82.578125 C 48.734375 -86.253906 49.039062 -89.898438 49.65625 -93.515625 C 50.269531 -97.140625 51.191406 -100.664062 52.421875 -104.09375 C 53.890625 -108.019531 55.878906 -111.695312 58.390625 -115.125 C 60.910156 -118.5625 64.007812 -121.265625 67.6875 -123.234375 C 69.519531 -124.210938 71.476562 -125.035156 73.5625 -125.703125 C 75.65625 -126.378906 77.742188 -126.71875 79.828125 -126.71875 C 80.429688 -126.71875 81.007812 -126.71875 81.5625 -126.71875 C 82.113281 -126.71875 82.632812 -126.597656 83.125 -126.359375 C 86.5625 -125.492188 89.320312 -123.648438 91.40625 -120.828125 C 93.488281 -118.015625 94.71875 -114.953125 95.09375 -111.640625 C 95.09375 -111.148438 95.117188 -110.691406 95.171875 -110.265625 C 95.234375 -109.835938 95.265625 -109.4375 95.265625 -109.0625 C 95.265625 -106.238281 94.65625 -103.664062 93.4375 -101.34375 C 91.84375 -98.03125 89.507812 -95.023438 86.4375 -92.328125 C 83.007812 -89.390625 79.179688 -86.96875 74.953125 -85.0625 C 70.722656 -83.164062 66.519531 -81.359375 62.34375 -79.640625 L 57.75 -77.984375 C 57.75 -76.878906 57.71875 -75.773438 57.65625 -74.671875 C 57.59375 -73.566406 57.5625 -72.460938 57.5625 -71.359375 C 57.5625 -68.910156 57.65625 -66.488281 57.84375 -64.09375 C 58.03125 -61.707031 58.242188 -59.285156 58.484375 -56.828125 C 59.097656 -53.023438 59.988281 -49.222656 61.15625 -45.421875 C 62.320312 -41.628906 63.882812 -38.015625 65.84375 -34.578125 C 69.03125 -29.179688 73.140625 -24.09375 78.171875 -19.3125 C 79.023438 -18.457031 79.910156 -17.660156 80.828125 -16.921875 C 81.753906 -16.179688 82.644531 -15.445312 83.5 -14.71875 L 87.734375 -19.125 C 90.429688 -22.3125 92.695312 -25.710938 94.53125 -29.328125 C 96.375 -32.953125 97.660156 -36.722656 98.390625 -40.640625 C 99.128906 -43.585938 99.5 -46.65625 99.5 -49.84375 C 99.5 -50.457031 99.5 -51.039062 99.5 -51.59375 C 99.5 -52.144531 99.4375 -52.664062 99.3125 -53.15625 C 99.195312 -54.257812 99.109375 -55.363281 99.046875 -56.46875 C 98.984375 -57.570312 98.828125 -58.613281 98.578125 -59.59375 L 97.65625 -63.265625 L 86.625 -63.265625 L 86.4375 -64.1875 L 94.90625 -65.65625 L 114.765625 -65.65625 L 114.765625 -64.921875 L 100.046875 -63.265625 C 100.546875 -61.921875 101.007812 -60.390625 101.4375 -58.671875 C 101.863281 -56.953125 102.078125 -55.113281 102.078125 -53.15625 C 102.203125 -52.289062 102.289062 -51.457031 102.34375 -50.65625 C 102.40625 -49.863281 102.4375 -49.039062 102.4375 -48.1875 C 102.4375 -42.050781 101.335938 -36.226562 99.140625 -30.71875 C 96.316406 -23.726562 92.082031 -17.65625 86.4375 -12.5 C 90.113281 -9.925781 93.796875 -7.96875 97.484375 -6.625 C 103.734375 -3.925781 110.535156 -2.578125 117.890625 -2.578125 C 118.628906 -2.578125 119.394531 -2.578125 120.1875 -2.578125 C 120.988281 -2.578125 121.753906 -2.640625 122.484375 -2.765625 Z M 58.484375 -88.28125 C 58.359375 -87.050781 58.265625 -85.914062 58.203125 -84.875 C 58.148438 -83.832031 58.125 -82.820312 58.125 -81.84375 L 61.796875 -83.6875 C 66.085938 -85.894531 70.132812 -88.625 73.9375 -91.875 C 77.738281 -95.125 80.800781 -98.894531 83.125 -103.1875 C 84.113281 -104.894531 84.882812 -106.640625 85.4375 -108.421875 C 85.988281 -110.203125 86.265625 -112.070312 86.265625 -114.03125 C 86.265625 -116.363281 85.832031 -118.382812 84.96875 -120.09375 C 84.601562 -120.832031 84.144531 -121.566406 83.59375 -122.296875 C 83.039062 -123.035156 82.335938 -123.648438 81.484375 -124.140625 C 80.742188 -124.515625 80.003906 -124.703125 79.265625 -124.703125 C 78.773438 -124.703125 78.285156 -124.640625 77.796875 -124.515625 C 77.304688 -124.390625 76.816406 -124.207031 76.328125 -123.96875 C 74.972656 -123.226562 73.773438 -122.304688 72.734375 -121.203125 C 71.691406 -120.097656 70.679688 -118.929688 69.703125 -117.703125 C 67.617188 -114.640625 65.78125 -111.394531 64.1875 -107.96875 C 62.59375 -104.78125 61.304688 -101.34375 60.328125 -97.65625 C 59.835938 -96.0625 59.46875 -94.5 59.21875 -92.96875 C 58.976562 -91.4375 58.734375 -89.875 58.484375 -88.28125 Z M 68.046875 -5.15625 C 72.828125 -6.988281 77.054688 -9.4375 80.734375 -12.5 C 79.878906 -13.113281 79.019531 -13.789062 78.15625 -14.53125 C 77.300781 -15.269531 76.382812 -16.066406 75.40625 -16.921875 C 71.476562 -20.597656 67.953125 -24.734375 64.828125 -29.328125 C 61.703125 -33.929688 59.035156 -38.742188 56.828125 -43.765625 C 54.742188 -48.671875 53.023438 -53.664062 51.671875 -58.75 C 50.328125 -63.84375 49.472656 -69.023438 49.109375 -74.296875 C 45.671875 -72.828125 42.601562 -71.050781 39.90625 -68.96875 C 37.582031 -67.007812 35.40625 -64.832031 33.375 -62.4375 C 31.351562 -60.050781 29.671875 -57.445312 28.328125 -54.625 C 25.503906 -48.738281 24.09375 -42.609375 24.09375 -36.234375 C 24.09375 -31.328125 24.953125 -26.484375 26.671875 -21.703125 C 28.390625 -17.046875 31.085938 -12.847656 34.765625 -9.109375 C 38.441406 -5.367188 42.789062 -3.066406 47.8125 -2.203125 C 48.675781 -2.078125 49.503906 -1.984375 50.296875 -1.921875 C 51.097656 -1.867188 51.925781 -1.84375 52.78125 -1.84375 C 55.476562 -1.84375 58.113281 -2.144531 60.6875 -2.75 C 63.269531 -3.363281 65.722656 -4.164062 68.046875 -5.15625 Z M 68.046875 -5.15625 "/></g></g></g><g fill="#4b6845" fill-opacity="1"><g transform="translate(248.00246, 250.9614)"><g><path d="M 119.546875 -49.65625 C 120.648438 -45.976562 121.203125 -42.238281 121.203125 -38.4375 C 121.203125 -32.425781 119.757812 -26.660156 116.875 -21.140625 C 114 -15.628906 109.554688 -10.789062 103.546875 -6.625 C 98.765625 -3.4375 93.304688 -1.410156 87.171875 -0.546875 C 81.046875 0.304688 74.914062 0.734375 68.78125 0.734375 C 66.207031 0.734375 63.691406 0.703125 61.234375 0.640625 C 58.785156 0.578125 56.457031 0.546875 54.25 0.546875 L 53.34375 0.546875 C 52.113281 0.546875 50.023438 0.609375 47.078125 0.734375 C 44.140625 0.859375 41.078125 0.921875 37.890625 0.921875 C 37.023438 0.921875 36.101562 0.890625 35.125 0.828125 C 34.144531 0.765625 33.226562 0.734375 32.375 0.734375 L 5.515625 -0.734375 L 5.15625 -3.5 L 22.4375 -3.5 L 22.4375 -148.0625 L 11.21875 -148.0625 L 10.296875 -150.265625 L 32.375 -151.546875 C 34.457031 -151.671875 36.445312 -151.734375 38.34375 -151.734375 C 40.25 -151.734375 42.117188 -151.734375 43.953125 -151.734375 C 48.984375 -151.734375 53.953125 -151.671875 58.859375 -151.546875 C 63.765625 -151.429688 69.21875 -151.375 75.21875 -151.375 C 81.476562 -151.375 87.578125 -150.546875 93.515625 -148.890625 C 99.460938 -147.234375 104.644531 -144.535156 109.0625 -140.796875 C 113.476562 -137.054688 116.484375 -132.117188 118.078125 -125.984375 C 119.179688 -121.941406 119.734375 -118.140625 119.734375 -114.578125 C 119.734375 -107.835938 118.140625 -102.109375 114.953125 -97.390625 C 111.765625 -92.671875 107.75 -88.804688 102.90625 -85.796875 C 98.0625 -82.796875 93.003906 -80.46875 87.734375 -78.8125 C 82.460938 -77.15625 77.800781 -76.082031 73.75 -75.59375 C 73.75 -75.59375 75.066406 -75.46875 77.703125 -75.21875 C 80.335938 -74.976562 83.675781 -74.457031 87.71875 -73.65625 C 91.769531 -72.863281 95.941406 -71.515625 100.234375 -69.609375 C 104.523438 -67.710938 108.445312 -65.171875 112 -61.984375 C 115.5625 -58.796875 118.078125 -54.6875 119.546875 -49.65625 Z M 39.546875 -148.421875 C 39.671875 -145.109375 39.757812 -141.765625 39.8125 -138.390625 C 39.875 -135.023438 39.90625 -131.6875 39.90625 -128.375 C 39.90625 -119.789062 39.8125 -111.175781 39.625 -102.53125 C 39.445312 -93.882812 39.296875 -85.210938 39.171875 -76.515625 C 40.035156 -76.515625 40.894531 -76.546875 41.75 -76.609375 C 42.601562 -76.671875 43.460938 -76.703125 44.328125 -76.703125 C 46.898438 -76.703125 49.441406 -76.640625 51.953125 -76.515625 C 54.472656 -76.390625 56.894531 -76.328125 59.21875 -76.328125 C 64.25 -76.328125 69.09375 -76.753906 73.75 -77.609375 C 78.40625 -78.472656 82.820312 -80.3125 87 -83.125 C 92.019531 -86.6875 96.03125 -91.222656 99.03125 -96.734375 C 102.039062 -102.253906 103.609375 -108.019531 103.734375 -114.03125 C 103.734375 -116.476562 103.300781 -119.601562 102.4375 -123.40625 C 101.582031 -127.207031 99.925781 -131.039062 97.46875 -134.90625 C 95.019531 -138.769531 91.523438 -142.019531 86.984375 -144.65625 C 82.453125 -147.289062 76.507812 -148.671875 69.15625 -148.796875 L 64.375 -148.796875 C 60.695312 -148.796875 56.648438 -148.765625 52.234375 -148.703125 C 47.816406 -148.640625 43.585938 -148.546875 39.546875 -148.421875 Z M 101.53125 -22.625 C 102.75 -24.945312 103.632812 -27.457031 104.1875 -30.15625 C 104.738281 -32.851562 105.015625 -35.550781 105.015625 -38.25 C 105.015625 -43.40625 104.003906 -48.429688 101.984375 -53.328125 C 99.960938 -58.234375 96.925781 -62.160156 92.875 -65.109375 C 88.957031 -67.929688 84.207031 -69.832031 78.625 -70.8125 C 73.050781 -71.789062 67.320312 -72.28125 61.4375 -72.28125 C 58.363281 -72.28125 55.265625 -72.21875 52.140625 -72.09375 C 49.015625 -71.96875 46.039062 -71.785156 43.21875 -71.546875 C 42.488281 -71.546875 41.753906 -71.515625 41.015625 -71.453125 C 40.273438 -71.390625 39.539062 -71.359375 38.8125 -71.359375 C 38.8125 -71.359375 38.78125 -71.359375 38.71875 -71.359375 C 38.65625 -71.359375 38.5 -71.359375 38.25 -71.359375 L 38.25 -3.125 C 41.195312 -3.125 44.539062 -3 48.28125 -2.75 C 52.019531 -2.507812 55.910156 -2.390625 59.953125 -2.390625 C 65.109375 -2.390625 70.289062 -2.878906 75.5 -3.859375 C 80.707031 -4.835938 85.578125 -6.769531 90.109375 -9.65625 C 94.648438 -12.539062 98.457031 -16.863281 101.53125 -22.625 Z M 101.53125 -22.625 "/></g></g></g></svg>